<?xml version="1.0" standalone="no"?>
<!DOCTYPE svg PUBLIC "-//W3C//DTD SVG 20010904//EN"
 "http://www.w3.org/TR/2001/REC-SVG-20010904/DTD/svg10.dtd">
<svg version="1.0" xmlns="http://www.w3.org/2000/svg"
 width="479.000000pt" height="338.000000pt" viewBox="0 0 479.000000 338.000000"
 preserveAspectRatio="xMidYMid meet">

<g transform="translate(0.000000,338.000000) scale(0.100000,-0.100000)"
fill="#000000" stroke="none">
<path d="M250 3110 l0 -199 108 -4 107 -3 -107 -2 -108 -2 0 -320 0 -319 108
-4 107 -3 -107 -2 -108 -2 0 -320 0 -319 108 -4 107 -3 -107 -2 -108 -2 0
-315 0 -314 108 -4 107 -3 -107 -2 -108 -2 0 -320 0 -320 2235 0 2235 0 0 320
0 320 -170 0 -170 0 -3 -257 -2 -258 -3 258 -2 257 -185 0 -185 0 -3 -192 -2
-193 -3 193 -2 192 -185 0 -184 0 -4 -127 -3 -128 -2 128 -2 127 -180 0 -179
0 -4 -62 -3 -63 -2 62 -2 62 -117 4 -118 3 118 2 117 2 0 315 0 315 -185 0
-185 0 -3 -317 -2 -318 -3 318 -2 317 -180 0 -180 0 -3 -252 -2 -253 -3 252
-2 252 -117 4 -118 3 118 2 117 2 0 320 0 320 -185 0 -185 0 -3 -257 -2 -258
-3 258 -2 257 -185 0 -185 0 -3 -192 -2 -193 -3 193 -2 192 -180 0 -179 0 -4
-62 -3 -63 -2 62 -2 62 -117 4 -118 3 118 2 117 2 0 320 0 319 -117 4 -118 3
118 2 117 2 0 200 0 200 -185 0 -185 0 -3 -202 -2 -203 -3 203 -2 202 -180 0
-179 0 -4 -72 -3 -73 -2 73 -2 72 -180 0 -180 0 0 -200z m568 -207 c-10 -2
-28 -2 -40 0 -13 2 -5 4 17 4 22 1 32 -1 23 -4z m0 -650 c-10 -2 -28 -2 -40 0
-13 2 -5 4 17 4 22 1 32 -1 23 -4z m0 -650 c-10 -2 -28 -2 -40 0 -13 2 -5 4
17 4 22 1 32 -1 23 -4z m375 0 c-13 -2 -33 -2 -45 0 -13 2 -3 4 22 4 25 0 35
-2 23 -4z m375 0 c-10 -2 -28 -2 -40 0 -13 2 -5 4 17 4 22 1 32 -1 23 -4z
m380 0 c-10 -2 -28 -2 -40 0 -13 2 -5 4 17 4 22 1 32 -1 23 -4z m-1130 -640
c-10 -2 -28 -2 -40 0 -13 2 -5 4 17 4 22 1 32 -1 23 -4z m375 0 c-13 -2 -33
-2 -45 0 -13 2 -3 4 22 4 25 0 35 -2 23 -4z m375 0 c-10 -2 -28 -2 -40 0 -13
2 -5 4 17 4 22 1 32 -1 23 -4z m380 0 c-10 -2 -28 -2 -40 0 -13 2 -5 4 17 4
22 1 32 -1 23 -4z m375 0 c-13 -2 -33 -2 -45 0 -13 2 -3 4 22 4 25 0 35 -2 23
-4z m375 0 c-10 -2 -28 -2 -40 0 -13 2 -5 4 17 4 22 1 32 -1 23 -4z"/>
<path d="M1370 3110 l0 -200 180 0 180 0 0 200 0 200 -180 0 -180 0 0 -200z"/>
<path d="M1740 3110 l0 -200 185 0 185 0 0 200 0 200 -185 0 -185 0 0 -200z"/>
<path d="M2120 3110 l0 -200 185 0 185 0 0 200 0 200 -185 0 -185 0 0 -200z"/>
<path d="M2500 3110 l0 -200 180 0 180 0 0 200 0 200 -180 0 -180 0 0 -200z"/>
<path d="M2870 3110 l0 -200 185 0 185 0 0 200 0 200 -185 0 -185 0 0 -200z"/>
<path d="M3250 3110 l0 -200 180 0 180 0 0 200 0 200 -180 0 -180 0 0 -200z"/>
<path d="M3620 3110 l0 -200 185 0 185 0 0 200 0 200 -185 0 -185 0 0 -200z"/>
<path d="M4000 3110 l0 -200 185 0 185 0 0 200 0 200 -185 0 -185 0 0 -200z"/>
<path d="M4380 3110 l0 -200 170 0 170 0 0 200 0 200 -170 0 -170 0 0 -200z"/>
<path d="M90 2940 c0 -5 7 -7 15 -4 20 8 19 -3 -6 -37 l-21 -29 49 2 c48 3 48
3 48 38 0 34 -1 35 -42 37 -24 2 -43 -2 -43 -7z m80 -30 c0 -10 -5 -22 -10
-25 -13 -8 -24 20 -16 41 8 20 26 9 26 -16z m-40 -15 c0 -8 -7 -15 -16 -15
-14 0 -14 3 -4 15 7 8 14 15 16 15 2 0 4 -7 4 -15z"/>
<path d="M1370 2580 l0 -320 180 0 180 0 0 320 0 320 -180 0 -180 0 0 -320z"/>
<path d="M1740 2580 l0 -320 185 0 185 0 0 320 0 320 -185 0 -185 0 0 -320z"/>
<path d="M2120 2580 l0 -320 185 0 185 0 0 320 0 320 -185 0 -185 0 0 -320z"/>
<path d="M2500 2580 l0 -320 180 0 180 0 0 320 0 320 -180 0 -180 0 0 -320z"/>
<path d="M2870 2580 l0 -320 185 0 185 0 0 320 0 320 -185 0 -185 0 0 -320z"/>
<path d="M3250 2580 l0 -320 180 0 180 0 0 320 0 320 -180 0 -180 0 0 -320z"/>
<path d="M3620 2580 l0 -320 185 0 185 0 0 320 0 320 -185 0 -185 0 0 -320z"/>
<path d="M4000 2580 l0 -320 185 0 185 0 0 320 0 320 -185 0 -185 0 0 -320z"/>
<path d="M4380 2580 l0 -320 170 0 170 0 0 320 0 320 -170 0 -170 0 0 -320z"/>
<path d="M99 2298 c0 -2 -1 -20 -2 -41 l-2 -38 40 3 c29 2 41 8 43 21 3 12 -4
20 -17 24 -26 7 -27 20 -3 26 13 4 11 5 -5 6 -30 1 -31 -34 -2 -42 26 -7 16
-26 -11 -24 -16 1 -20 9 -20 34 0 18 -4 33 -10 33 -5 0 -10 -1 -11 -2z"/>
<path d="M2500 1930 l0 -320 180 0 180 0 0 320 0 320 -180 0 -180 0 0 -320z"/>
<path d="M2870 1930 l0 -320 185 0 185 0 0 320 0 320 -185 0 -185 0 0 -320z"/>
<path d="M3250 1930 l0 -320 180 0 180 0 0 320 0 320 -180 0 -180 0 0 -320z"/>
<path d="M3620 1930 l0 -320 185 0 185 0 0 320 0 320 -185 0 -185 0 0 -320z"/>
<path d="M4000 1930 l0 -320 185 0 185 0 0 320 0 320 -185 0 -185 0 0 -320z"/>
<path d="M4380 1930 l0 -320 170 0 170 0 0 320 0 320 -170 0 -170 0 0 -320z"/>
<path d="M99 1648 c0 -2 -1 -20 -2 -40 l-2 -38 40 3 c39 2 40 3 40 37 0 28 -4
35 -20 35 -15 0 -22 -9 -26 -35 l-6 -35 -2 38 c0 20 -5 37 -11 37 -5 0 -10 -1
-11 -2z m71 -38 c0 -10 -5 -22 -10 -25 -13 -8 -24 20 -16 41 8 20 26 9 26 -16z"/>
<path d="M3250 1285 l0 -315 180 0 180 0 0 315 0 315 -180 0 -180 0 0 -315z"/>
<path d="M3620 1285 l0 -315 185 0 185 0 0 315 0 315 -185 0 -185 0 0 -315z"/>
<path d="M4000 1285 l0 -315 185 0 185 0 0 315 0 315 -185 0 -185 0 0 -315z"/>
<path d="M4380 1285 l0 -315 170 0 170 0 0 315 0 315 -170 0 -170 0 0 -315z"/>
<path d="M140 985 c0 -18 4 -23 15 -19 10 4 15 0 15 -11 0 -12 -5 -15 -22 -10
-18 6 -20 5 -11 -5 15 -16 43 -6 43 15 0 9 -7 18 -15 21 -20 8 -19 21 3 27 13
4 11 5 -5 6 -18 1 -23 -4 -23 -24z"/>
<path d="M135 341 c-9 -30 4 -63 23 -59 12 2 17 14 17 38 0 40 -29 55 -40 21z
m35 -21 c0 -16 -4 -30 -10 -30 -5 0 -10 14 -10 30 0 17 5 30 10 30 6 0 10 -13
10 -30z"/>
<path d="M2920 221 c0 -28 -17 -35 -25 -11 -3 11 -11 20 -16 20 -11 0 -11 -38
1 -65 l9 -20 1 20 c1 11 4 14 7 8 7 -19 23 -16 23 4 0 15 2 14 16 -3 15 -18
15 -17 10 15 -3 18 -6 37 -6 42 0 5 -4 9 -10 9 -5 0 -10 -9 -10 -19z"/>
<path d="M3715 211 c3 -18 5 -37 5 -42 0 -5 4 -9 9 -9 4 0 6 11 3 25 -2 15 0
25 7 25 6 0 11 -11 11 -24 0 -19 4 -23 20 -19 21 6 24 16 10 48 -8 17 -9 16
-11 -10 -1 -24 -3 -26 -6 -7 -3 13 -12 22 -23 22 -10 0 -21 6 -24 13 -4 6 -4
-3 -1 -22z"/>
<path d="M4080 230 c0 -5 5 -10 11 -10 5 0 7 5 4 10 -3 6 -8 10 -11 10 -2 0
-4 -4 -4 -10z"/>
<path d="M4511 218 c0 -13 4 -32 9 -43 7 -17 9 -17 9 -2 1 22 9 22 33 0 19
-17 19 -16 13 12 -12 52 -14 55 -40 55 -19 0 -25 -5 -24 -22z m47 0 c-3 -7
-11 -13 -18 -13 -7 0 -15 6 -17 13 -3 7 4 12 17 12 13 0 20 -5 18 -12z"/>
<path d="M681 210 c0 -14 4 -34 9 -45 7 -17 9 -16 9 10 1 31 15 25 24 -10 3
-13 5 -9 6 13 1 25 -3 32 -18 32 -11 0 -22 6 -24 13 -3 6 -5 1 -6 -13z"/>
<path d="M1435 201 c3 -18 5 -37 5 -42 0 -5 4 -9 9 -9 4 0 6 12 3 26 -3 19 -1
25 7 20 6 -4 11 -16 11 -26 0 -15 6 -19 22 -17 18 1 24 -4 26 -23 2 -14 8 -29
14 -35 7 -7 8 -2 4 15 -6 21 -5 22 4 8 16 -26 30 -22 31 10 l1 27 8 -30 c8
-28 8 -28 7 9 -2 44 -27 64 -27 21 0 -36 -17 -23 -18 15 0 16 -3 34 -7 40 -9
15 -48 13 -42 -2 2 -7 1 -22 -4 -33 -7 -17 -8 -16 -8 8 -1 20 -6 27 -20 27
-11 0 -22 6 -25 13 -4 6 -4 -3 -1 -22z m85 -21 c0 -5 -5 -10 -11 -10 -5 0 -7
5 -4 10 3 6 8 10 11 10 2 0 4 -4 4 -10z"/>
<path d="M1857 193 c2 -31 1 -33 -5 -13 -11 36 -37 32 -37 -5 0 -27 3 -30 30
-27 16 2 32 7 35 10 3 4 21 7 40 7 28 0 35 4 36 20 0 11 -4 25 -9 32 -13 18
-37 4 -37 -24 0 -14 -4 -22 -10 -18 -6 4 -8 16 -4 28 6 19 5 20 -10 8 -14 -12
-16 -11 -16 3 0 9 -4 16 -8 16 -4 0 -7 -17 -5 -37z m90 -9 c-3 -3 -12 -4 -19
-1 -8 3 -5 6 6 6 11 1 17 -2 13 -5z"/>
<path d="M2553 223 c-7 -3 -13 -16 -13 -29 0 -17 -6 -24 -20 -24 -11 0 -20 7
-20 15 0 8 7 15 16 15 8 0 13 4 9 10 -9 14 -35 0 -35 -19 -1 -14 -2 -14 -11 2
-15 25 -29 21 -41 -14 -12 -35 -41 -36 -46 -1 -3 17 2 22 18 22 12 0 18 5 15
10 -10 16 -33 12 -44 -8 -21 -39 14 -87 45 -61 7 6 18 8 24 4 6 -4 17 -1 25 5
8 7 22 9 31 6 9 -3 21 -3 27 1 7 4 21 7 32 8 14 0 21 8 23 26 3 27 -12 40 -35
32z m25 -30 c-4 -22 -22 -20 -26 1 -2 10 3 16 13 16 10 0 15 -7 13 -17z m-108
-18 c0 -8 -4 -15 -10 -15 -5 0 -10 7 -10 15 0 8 5 15 10 15 6 0 10 -7 10 -15z"/>
<path d="M2815 220 c-17 -7 -17 -9 -2 -9 12 -1 17 -9 17 -30 0 -17 5 -33 11
-37 8 -4 9 3 4 25 -4 20 -2 37 5 46 14 17 -1 19 -35 5z"/>
<path d="M3309 208 c0 -22 -1 -22 -10 -3 -7 15 -8 10 -4 -20 4 -37 3 -38 -6
-12 -6 16 -18 27 -29 27 -14 0 -18 -7 -17 -27 2 -24 7 -28 35 -31 27 -3 32 0
33 20 1 17 3 18 6 6 5 -20 23 -24 23 -6 0 9 3 9 11 1 12 -12 39 -7 39 8 0 4
-7 6 -15 3 -8 -4 -15 -2 -15 4 0 5 9 12 20 15 20 5 37 -23 25 -43 -3 -5 -2
-10 4 -10 10 0 14 12 26 75 4 18 3 19 -9 3 -10 -13 -15 -15 -24 -6 -9 9 -12 9
-12 -1 0 -11 -3 -11 -16 0 -14 11 -18 10 -30 -6 -12 -16 -14 -16 -14 -3 0 26
-20 32 -21 6z"/>
<path d="M4123 223 c-19 -7 -15 -33 5 -34 14 0 14 -2 -3 -9 l-20 -8 20 -8 c11
-5 20 -15 21 -21 3 -36 5 -41 19 -47 17 -6 45 2 45 13 0 4 -10 7 -22 7 -33 -1
-38 41 -6 46 20 3 17 7 -21 25 -34 16 -40 22 -25 25 10 2 15 6 9 9 -5 4 -16 4
-22 2z"/>
<path d="M4456 208 c-3 -13 -6 -34 -6 -48 1 -22 2 -23 11 -7 11 19 39 23 39 5
0 -6 3 -8 7 -4 8 8 -26 76 -37 76 -4 0 -10 -10 -14 -22z"/>
<path d="M620 210 c0 -5 5 -10 10 -10 6 0 10 -8 10 -17 0 -10 5 -25 11 -33 8
-11 9 -6 6 22 -4 23 -1 39 6 42 7 2 0 5 -15 5 -16 1 -28 -3 -28 -9z"/>
<path d="M740 195 c0 -29 25 -44 43 -25 9 10 7 11 -10 5 -14 -4 -23 -2 -23 4
0 6 9 11 21 11 27 0 19 24 -9 28 -18 3 -22 -2 -22 -23z"/>
<path d="M1077 206 c-6 -15 -10 -16 -22 -6 -19 16 -19 1 0 -24 12 -16 12 -22
2 -34 -10 -12 -9 -14 3 -10 8 2 18 19 23 37 9 37 5 65 -6 37z"/>
<path d="M1110 210 c10 -6 11 -10 3 -10 -7 0 -13 -9 -13 -20 0 -15 6 -19 25
-18 38 3 30 58 -9 58 -17 0 -18 -2 -6 -10z m20 -30 c0 -5 -4 -10 -10 -10 -5 0
-10 5 -10 10 0 6 5 10 10 10 6 0 10 -4 10 -10z"/>
<path d="M2220 198 c0 -16 -4 -28 -10 -28 -5 0 -10 9 -10 19 0 19 -2 20 -86
12 -6 -1 -10 -13 -8 -28 l4 -28 -11 28 c-12 29 -16 32 -39 17 -13 -8 -12 -10
4 -10 20 0 20 0 0 -14 -25 -19 -43 -3 -26 24 7 11 8 20 3 20 -6 0 -15 -8 -20
-17 -6 -10 -11 -12 -11 -5 0 6 -4 12 -10 12 -5 0 -7 -14 -3 -32 7 -38 23 -61
23 -34 0 15 3 16 14 7 9 -7 29 -9 55 -5 37 6 40 9 35 30 -4 15 -2 24 5 24 6 0
11 -9 11 -20 0 -11 4 -20 9 -20 4 0 6 12 3 26 -3 19 -1 25 7 20 6 -4 11 -16
11 -28 0 -14 5 -18 16 -14 9 3 24 6 35 6 21 0 25 25 9 50 -8 12 -10 9 -10 -12z
m-33 -30 c-3 -7 -5 -2 -5 12 0 14 2 19 5 13 2 -7 2 -19 0 -25z"/>
<path d="M2766 189 c-10 -54 -8 -63 10 -44 12 12 19 13 30 4 8 -6 14 -8 14 -3
0 10 -38 74 -44 74 -2 0 -6 -14 -10 -31z"/>
<path d="M4385 210 c-4 -6 -4 -27 0 -46 5 -30 9 -34 28 -28 31 9 31 10 21 46
-10 33 -36 48 -49 28z m30 -10 c3 -5 -1 -10 -10 -10 -9 0 -13 5 -10 10 3 6 8
10 10 10 2 0 7 -4 10 -10z m15 -41 c0 -5 -7 -9 -15 -9 -15 0 -20 12 -9 23 8 8
24 -1 24 -14z"/>
<path d="M934 194 c3 -9 6 -27 6 -40 0 -13 5 -24 11 -24 7 0 9 10 5 25 -8 31
7 33 22 3 11 -23 11 -23 11 -2 1 23 -21 48 -32 37 -4 -3 -7 -1 -7 5 0 7 -5 12
-11 12 -6 0 -8 -7 -5 -16z"/>
<path d="M1000 200 c-12 -8 -11 -10 5 -11 11 0 14 -3 8 -6 -15 -5 -18 -43 -4
-43 24 0 38 13 34 30 -7 28 -26 41 -43 30z m30 -34 c0 -3 -4 -8 -10 -11 -5 -3
-10 -1 -10 4 0 6 5 11 10 11 6 0 10 -2 10 -4z"/>
<path d="M1690 195 c-15 -18 -5 -35 21 -35 26 0 24 -18 -3 -23 -21 -3 -21 -4
-5 -11 12 -6 24 -3 36 8 15 14 20 14 24 4 3 -7 6 -1 6 15 1 33 18 36 24 5 4
-20 4 -19 6 5 1 20 -5 30 -21 36 -19 7 -24 5 -28 -15 -5 -21 -7 -22 -30 -9
l-25 14 23 1 c13 0 20 4 17 10 -9 14 -31 12 -45 -5z"/>
<path d="M3555 173 c4 -29 3 -32 -3 -13 -5 15 -15 25 -27 25 -11 0 -26 4 -33
8 -7 5 -21 5 -32 2 -16 -5 -18 -12 -13 -38 7 -41 17 -52 40 -42 10 5 33 9 52
11 19 2 37 7 40 11 3 4 31 9 61 11 65 4 84 17 56 38 -13 9 -15 14 -6 14 7 0
11 3 7 6 -3 4 -14 3 -24 0 -16 -7 -15 -9 7 -26 25 -19 25 -19 3 -17 -13 1 -23
6 -23 13 0 20 -24 34 -40 24 -13 -8 -12 -10 3 -10 16 0 16 -1 0 -18 -22 -23
-36 -17 -27 11 6 19 5 20 -10 8 -14 -12 -16 -11 -16 3 0 9 -4 16 -9 16 -6 0
-8 -17 -6 -37z m-60 -18 c0 -28 -29 -25 -33 3 -3 19 0 23 15 20 10 -2 18 -12
18 -23z m45 -6 c0 -5 -4 -9 -8 -9 -5 0 -9 7 -9 15 0 8 4 12 9 9 4 -3 8 -9 8
-15z"/>
<path d="M4040 188 c-1 -21 -2 -21 -11 -5 -10 17 -59 24 -72 10 -10 -9 -58
-10 -63 -1 -11 17 -24 7 -25 -19 l0 -28 -16 23 c-8 12 -19 22 -24 22 -11 0 0
-62 13 -75 7 -7 8 -1 4 15 -6 21 -5 22 4 8 16 -26 28 -22 33 10 l4 27 2 -27
c1 -32 6 -33 43 -14 20 11 28 11 32 3 2 -7 5 4 6 23 l2 35 13 -30 14 -30 1 28
c0 33 20 27 21 -6 0 -12 3 -17 5 -11 2 6 19 8 36 6 26 -4 30 -2 25 12 -4 10
-7 24 -7 32 0 8 -9 14 -20 14 -14 0 -20 -7 -20 -22z m-110 -42 c-14 -14 -24 0
-16 21 6 15 8 15 16 3 6 -9 5 -19 0 -24z m140 24 c0 -5 -4 -10 -10 -10 -5 0
-10 5 -10 10 0 6 5 10 10 10 6 0 10 -4 10 -10z"/>
<path d="M495 180 c-3 -11 -3 -29 0 -41 10 -29 59 -23 63 9 7 45 -50 74 -63
32z m52 -34 c-4 -9 -13 -16 -21 -16 -19 0 -29 30 -15 47 11 12 14 12 27 -1 8
-8 12 -22 9 -30z"/>
<path d="M568 165 c2 -19 9 -35 14 -35 6 0 8 10 4 23 -3 12 -6 28 -6 35 0 6
-4 12 -8 12 -4 0 -6 -16 -4 -35z"/>
<path d="M830 185 c-25 -30 12 -88 43 -68 7 5 21 8 31 8 11 0 21 6 23 13 3 7
-1 10 -11 6 -11 -4 -16 -1 -16 10 0 9 7 16 16 16 8 0 12 5 9 10 -4 6 -15 8
-25 5 -10 -3 -21 -1 -25 5 -9 15 -31 12 -45 -5z m45 -30 c0 -11 -8 -21 -17
-23 -14 -3 -18 3 -18 23 0 20 4 26 18 23 9 -2 17 -12 17 -23z"/>
<path d="M1280 195 c-4 -19 2 -60 11 -70 6 -5 9 -4 9 4 0 11 3 11 15 1 9 -8
15 -9 15 -2 0 6 -5 14 -11 17 -6 4 -8 14 -4 22 4 13 3 14 -9 4 -12 -10 -15 -8
-19 11 -2 13 -5 19 -7 13z"/>
<path d="M1390 190 c0 -5 -7 -7 -16 -3 -13 5 -15 2 -10 -15 10 -31 -11 -36
-23 -5 l-10 28 2 -30 c1 -23 7 -31 25 -33 16 -2 22 2 23 15 0 10 3 13 6 6 6
-15 43 -18 43 -3 0 5 -7 7 -15 4 -10 -4 -15 0 -15 15 0 15 4 19 17 14 11 -4
14 -3 9 5 -9 14 -36 16 -36 2z"/>
<path d="M4300 178 c0 -13 -5 -30 -10 -38 -8 -12 -10 -9 -10 12 0 15 -4 30
-10 33 -5 3 -10 -1 -10 -9 0 -9 -7 -16 -15 -16 -8 0 -15 5 -15 10 0 6 -4 10
-10 10 -5 0 -7 -14 -3 -32 7 -40 26 -65 21 -28 -2 17 2 26 15 28 12 2 17 -3
17 -17 0 -25 13 -27 34 -5 10 9 24 13 36 9 20 -6 20 -6 -1 29 -24 41 -39 46
-39 14z m25 -18 c3 -5 1 -10 -4 -10 -6 0 -11 5 -11 10 0 6 2 10 4 10 3 0 8 -4
11 -10z"/>
<path d="M451 173 c-6 -10 -11 -12 -11 -5 0 6 -4 12 -10 12 -5 0 -7 -14 -3
-32 7 -39 23 -61 23 -33 0 15 3 16 12 7 21 -21 32 -13 12 9 -15 17 -16 23 -6
40 7 10 8 19 3 19 -6 0 -15 -8 -20 -17z"/>
<path d="M1229 163 l0 -28 -16 23 c-8 12 -19 22 -24 22 -11 0 0 -62 13 -75 7
-7 8 -1 4 15 -6 21 -5 22 4 8 16 -26 28 -22 33 10 l4 27 2 -27 c0 -16 5 -28
10 -28 16 0 19 13 9 48 -11 40 -38 43 -39 5z"/>
<path d="M3045 180 c-17 -7 -17 -9 -2 -9 11 -1 17 -9 17 -25 0 -14 5 -28 11
-32 7 -4 10 4 8 22 -2 16 0 35 4 42 9 14 -8 15 -38 2z"/>
<path d="M3101 172 c1 -9 5 -28 9 -42 l8 -25 1 28 c1 33 18 36 24 5 4 -16 5
-15 4 6 -2 20 -9 31 -24 37 -18 7 -23 5 -22 -9z"/>
<path d="M3171 181 c-18 -11 -10 -55 12 -59 9 -2 17 1 17 7 0 6 -8 11 -17 11
-14 1 -13 3 5 14 19 10 21 15 10 24 -8 6 -19 7 -27 3z"/>
<path d="M1600 140 c0 -16 5 -30 11 -30 6 0 8 9 4 21 -5 14 -2 25 6 30 11 7
10 9 -3 9 -13 0 -18 -8 -18 -30z"/>
</g>
</svg>
